<?xml version="1.0" encoding="UTF-8"?>
<svg id="Layer_1" data-name="Layer 1" xmlns="http://www.w3.org/2000/svg" viewBox="0 0 1516.221 440.898">
  <defs>
    <style>
      .cls-1 {
        fill: none;
        stroke: #282973;
        stroke-miterlimit: 10;
        stroke-width: 8px;
      }

      .cls-2 {
        fill: #27aae1;
      }

      .cls-2, .cls-3, .cls-4, .cls-5 {
        stroke-width: 0px;
      }

      .cls-3 {
        fill: #fff;
      }

      .cls-4 {
        fill: #00aeef;
      }

      .cls-5 {
        fill: #282973;
      }
    </style>
  </defs>
  <g>
    <path class="cls-3" d="M270.633,166.786h15.251v-69.374h30.049v69.374h45.753v33.164h-45.753v105.922c0,3.162.227,5.362.68,6.6.453,1.242,1.382,1.861,2.793,1.861h10.268c1.408,0,2.34-.619,2.793-1.861.453-1.238.679-3.437.679-6.6v-34.179h30.2v35.533c0,7.223-.177,13.421-.528,18.613-.354,5.187-1.133,9.359-2.341,12.52-1.208,3.157-2.996,5.468-5.36,6.938-2.367,1.464-5.512,2.2-9.438,2.2h-42.129c-3.926,0-7.074-.736-9.438-2.2-2.367-1.469-4.153-3.78-5.361-6.938-1.208-3.161-1.989-7.333-2.34-12.52-.354-5.192-.528-11.39-.528-18.613v-107.275h-15.251v-33.164Z"/>
    <path class="cls-3" d="M470.254,317.568c0,5.368-.177,9.974-.528,13.833-.354,3.855-1.133,6.956-2.341,9.305-1.208,2.347-2.996,4.064-5.36,5.156-2.366,1.088-5.511,1.635-9.438,1.635h-56.323c-3.926,0-7.074-.547-9.438-1.635-2.367-1.092-4.153-2.81-5.361-5.156-1.208-2.349-1.989-5.45-2.34-9.305-.354-3.859-.528-8.465-.528-13.833v-76.709c0-5.364.174-9.934.528-13.707.352-3.772,1.132-6.916,2.34-9.431,1.208-2.346,2.994-4.064,5.361-5.156,2.364-1.088,5.511-1.634,9.438-1.634h56.323c3.926,0,7.071.546,9.438,1.634,2.364,1.093,4.153,2.81,5.36,5.156,1.208,2.515,1.987,5.659,2.341,9.431.352,3.773.528,8.343.528,13.707v76.709ZM408.797,316.561c0,2.35.227,3.985.68,4.905.453.923,1.382,1.383,2.793,1.383h24.462c1.409,0,2.34-.46,2.793-1.383.453-.92.68-2.555.68-4.905v-74.696c0-2.346-.227-3.981-.68-4.905-.453-.919-1.385-1.383-2.793-1.383h-24.462c-1.411,0-2.34.463-2.793,1.383-.453.924-.68,2.558-.68,4.905v74.696Z"/>
    <path class="cls-3" d="M577.462,296.186v19.998c0,5.616-.177,10.436-.528,14.473-.354,4.033-1.133,7.277-2.341,9.735-1.208,2.455-2.996,4.252-5.36,5.395-2.366,1.139-5.511,1.711-9.438,1.711h-56.323c-3.926,0-7.074-.572-9.438-1.711-2.367-1.143-4.153-2.939-5.361-5.395-1.208-2.458-1.989-5.702-2.34-9.735-.354-4.037-.528-8.856-.528-14.473v-80.256c0-5.612.174-10.394.528-14.341.352-3.947,1.132-7.236,2.34-9.867,1.208-2.455,2.994-4.251,5.361-5.395,2.364-1.139,5.511-1.71,9.438-1.71h56.323c3.926,0,7.071.571,9.438,1.71,2.364,1.143,4.153,2.94,5.36,5.395,1.208,2.631,1.987,5.92,2.341,9.867.352,3.947.528,8.729.528,14.341v17.367h-30.049v-16.314c0-2.455-.227-4.165-.68-5.131-.453-.962-1.385-1.447-2.793-1.447h-24.462c-1.411,0-2.34.485-2.793,1.447-.453.966-.68,2.677-.68,5.131v78.15c0,2.459.227,4.169.68,5.132.453.966,1.382,1.447,2.793,1.447h24.462c1.409,0,2.34-.481,2.793-1.447.453-.963.68-2.673.68-5.132v-18.945h30.049Z"/>
    <path class="cls-3" d="M593.619,153.304h30.049v99.728l30.2-47.891h32.465l-40.77,63.152,44.092,79.466h-29.898l-36.089-62.889v62.626h-30.049v-194.193Z"/>
    <path class="cls-3" d="M764.096,236.98c0-2.455-.227-4.165-.679-5.131-.453-.962-1.386-1.447-2.794-1.447h-24.613c-2.216,0-3.374,1.755-3.473,5.262v111.833h-30.049v-194.193h30.049v51.311h43.941c3.926,0,7.07.571,9.438,1.71,2.363,1.143,4.152,2.94,5.36,5.395,1.208,2.631,1.986,5.92,2.34,9.867.352,3.947.529,8.729.529,14.341v111.569h-30.05v-110.517Z"/>
    <path class="cls-3" d="M901.355,316.184c0,5.616-.178,10.436-.529,14.473-.354,4.033-1.132,7.277-2.34,9.735-1.208,2.455-2.997,4.252-5.36,5.395-2.367,1.139-5.512,1.711-9.438,1.711h-56.323c-3.926,0-7.073-.572-9.438-1.711-2.366-1.143-4.152-2.939-5.36-5.395-1.208-2.458-1.989-5.702-2.341-9.735-.354-4.037-.528-8.856-.528-14.473v-80.256c0-5.612.175-10.394.528-14.341.352-3.947,1.133-7.236,2.341-9.867,1.208-2.455,2.994-4.251,5.36-5.395,2.364-1.139,5.512-1.71,9.438-1.71h56.323c3.926,0,7.07.571,9.438,1.71,2.363,1.143,4.152,2.94,5.36,5.395,1.208,2.631,1.986,5.92,2.34,9.867.352,3.947.529,8.729.529,14.341v80.256ZM839.897,315.131c0,2.459.227,4.169.679,5.132.453.966,1.383,1.447,2.794,1.447h24.462c1.408,0,2.341-.481,2.794-1.447.452-.963.679-2.673.679-5.132v-78.15c0-2.455-.227-4.165-.679-5.131-.453-.962-1.386-1.447-2.794-1.447h-24.462c-1.411,0-2.341.485-2.794,1.447-.452.966-.679,2.677-.679,5.131v78.15Z"/>
    <path class="cls-3" d="M920.68,153.304h30.05v194.193h-30.05v-194.193Z"/>
    <path class="cls-3" d="M1066.092,236.98c0-2.455-.227-4.165-.68-5.131-.453-.962-1.385-1.447-2.793-1.447h-13.741c-2.317,0-3.474,1.755-3.474,5.262v111.833h-26.425v-110.517c0-2.455-.227-4.165-.68-5.131-.452-.962-1.385-1.447-2.793-1.447h-13.741c-2.316,0-3.473,1.755-3.473,5.262v111.833h-28.539v-150.776h28.539v7.894h78.671c3.926,0,7.071.571,9.438,1.71,2.364,1.143,4.152,2.94,5.36,5.395,1.208,2.631,1.986,5.92,2.341,9.867.352,3.947.528,8.729.528,14.341v111.569h-28.539v-110.517Z"/>
    <path class="cls-3" d="M1148.234,153.304h94.526v25.787h-31.559v168.406h-31.56v-168.406h-31.408v-25.787Z"/>
    <path class="cls-3" d="M1366.429,307.764h-38.354l-7.7,39.733h-29.144l40.317-193.93h31.105l41.072,193.93h-29.143l-8.154-39.733ZM1333.058,281.976h28.237l-14.346-71.046-13.892,71.046Z"/>
    <path class="cls-3" d="M1415.353,153.304h83.201c3.624,0,6.517.526,8.683,1.579,2.163,1.053,3.798,2.722,4.907,5,1.106,2.458,1.812,5.571,2.114,9.341.302,3.774.453,8.289.453,13.551v44.47c0,3.511-.227,6.315-.68,8.42-.453,2.105-1.033,3.774-1.736,5-.808,1.406-1.713,2.459-2.719,3.158-1.007.703-2.113,1.406-3.321,2.105,1.106.703,2.265,1.538,3.473,2.5,1.208.966,2.314,2.15,3.322,3.552.905,1.579,1.661,3.511,2.265,5.789.604,2.282.906,5.09.906,8.42v51.837c0,5.263-.151,9.777-.453,13.552-.302,3.771-1.008,6.883-2.114,9.341-1.208,2.278-2.895,3.947-5.059,5-2.166,1.053-5.059,1.579-8.683,1.579h-84.56v-194.193ZM1446.911,179.091v58.152h36.24v-47.89c0-4.034-.403-6.751-1.208-8.157-.807-1.402-2.366-2.105-4.681-2.105h-30.352ZM1446.911,263.031v58.679h31.861c2.314,0,3.874-.699,4.681-2.105.805-1.402,1.208-4.12,1.208-8.157v-48.417h-37.75Z"/>
  </g>
  <g>
    <path class="cls-3" d="M162.905,230.402c69.715,33.442,107.382,100.986,84.524,153.85-19.587,45.3-77.472,65.602-139.013,52.94,29.975,5.021,59.321-.91,78.108-18.29,7.405-6.853,12.512-14.881,15.421-23.573,7.885-7.567,14.226-16.487,18.63-26.672,19.718-45.601-5.6-102.121-57.67-138.256Z"/>
    <path class="cls-3" d="M43.264,409.454c.236.102.479.207.717.305-.288-.125-.577-.249-.857-.376,42.39,9.754,81.923-2.325,94.553-31.536,12.794-29.588-6.131-67.256-43.218-91.429,7.699,1.869,15.476,4.461,23.196,7.799,1.672.723,3.32,1.471,4.938,2.241,35.882,24.205,53.989,61.122,41.404,90.227-.198.458-.398.905-.612,1.352-.208.449-.425.889-.649,1.326-.186.368-.378.733-.574,1.091-.194.369-.399.734-.605,1.098-.333.581-.676,1.153-1.035,1.713-.011.025-.026.044-.041.063-.187.307-.383.6-.58.897-.394.595-.802,1.174-1.221,1.748-.207.288-.419.574-.636.853-.218.283-.435.562-.657.839-.975,1.225-2.011,2.403-3.104,3.537-.176.186-.356.365-.536.544-.427.435-.865.86-1.313,1.28-.257.246-.518.486-.787.727-.192.174-.391.35-.59.525-.334.298-.68.592-1.03.879-.278.232-.555.46-.837.685-.275.224-.553.441-.839.659-.282.225-.576.446-.876.664-.292.216-.582.428-.88.642-.296.209-.592.419-.899.623-.296.209-.603.414-.909.614-.306.2-.611.4-.928.596-.306.2-.623.395-.938.586-.272.169-.547.332-.823.495-.365.21-.729.42-1.094.63-.006-.002-.008.002-.008.002-.1.057-.2.115-.3.172l19.365-5.121c.034-.031.073-.059.107-.09.822-.682,1.618-1.385,2.403-2.108,26.763-24.761,23.513-64.81-5.002-96.555,7.321,3.629,14.412,7.949,21.107,12.963,1.448,1.084,2.853,2.185,4.231,3.305,19.563,22.628,26.467,49.207,19.036,71.411-2.909,8.691-8.016,16.719-15.421,23.573-18.787,17.379-48.132,23.311-78.108,18.29-10.269-2.114-20.642-5.144-30.955-9.135-2.452-.945-4.9-1.948-7.345-3.005-11.278-4.877-21.786-10.633-31.42-17.08.816.187,1.626.371,2.44.546.706.315,1.419.629,2.128.935Z"/>
    <path class="cls-3" d="M140.697,411.524c.1-.057.2-.115.3-.172,0,0,.002-.004.008-.002l19.165-5.036c-.034.031-.073.059-.107.09l-19.365,5.121Z"/>
  </g>
  <g>
    <path class="cls-4" d="M70.469,259.075C.633,196.297-21.076,105.844,22.493,53.493,59.829,8.632,133.382,5.831,200.489,41.985c-33.058-16.299-68.934-19.863-96.301-6.624-10.788,5.222-19.297,12.595-25.478,21.502-11.574,5.868-21.8,13.826-30.194,23.912-37.584,45.159-26.594,118.663,21.953,178.3Z"/>
    <path class="cls-2" d="M266.893,96.638c-.24-.2-.487-.405-.731-.601.293.244.586.488.87.731-45.89-26.083-95.545-26.21-119.619,2.717-24.386,29.301-14.687,79.012,20.396,119.701-8.303-4.848-16.462-10.55-24.314-17.086-1.701-1.415-3.365-2.85-4.987-4.3-33.679-40.302-42.674-88.866-18.687-117.688.378-.454.754-.894,1.146-1.329.386-.44.78-.865,1.18-1.286.335-.354.675-.704,1.018-1.044.344-.354.7-.698,1.055-1.041.574-.546,1.156-1.079,1.752-1.592.021-.025.044-.041.068-.057.316-.284.637-.551.961-.821.649-.541,1.308-1.059,1.979-1.567.333-.256.671-.508,1.012-.751.344-.247.685-.489,1.032-.727,1.524-1.056,3.105-2.038,4.737-2.948.264-.15.53-.291.796-.432.635-.346,1.279-.678,1.934-1,.377-.191.757-.373,1.146-.554.278-.131.565-.262.853-.392.484-.223.979-.437,1.477-.641.397-.167.791-.33,1.19-.488.39-.159.783-.308,1.185-.457.4-.158.811-.306,1.228-.45.408-.144.812-.284,1.226-.423.41-.135.82-.27,1.242-.395.41-.135.832-.26,1.25-.381.418-.121.837-.242,1.267-.353.418-.121.849-.232,1.275-.34.369-.098.741-.187,1.113-.276.49-.111.98-.223,1.469-.334.006.005.009,0,.009,0,.134-.03.269-.061.403-.091l-24.066-.973c-.049.023-.104.041-.153.065-1.172.49-2.321,1.012-3.464,1.562-38.986,18.863-48.197,65.771-25.483,112.093-7.296-6.726-14.102-14.161-20.224-22.25-1.324-1.749-2.594-3.503-3.825-5.267-15.308-32.749-14.688-65.554,1.101-88.307,6.181-8.906,14.691-16.28,25.478-21.502,27.367-13.239,63.243-9.676,96.301,6.624,11.198,6.034,22.218,13.151,32.859,21.346,2.532,1.943,5.039,3.952,7.526,6.021,11.471,9.546,21.764,19.827,30.824,30.588-.884-.501-1.761-.997-2.646-1.484-.714-.609-1.438-1.218-2.159-1.818Z"/>
    <path class="cls-2" d="M154.824,59.94c-.134.03-.269.061-.403.091,0,0-.003.004-.009,0l-23.806-.998c.049-.023.104-.041.153-.065l24.066.973Z"/>
  </g>
  <g>
    <path class="cls-1" d="M334.826,66.65c58.106,28.198,116.211,56.397,174.317,84.595,59.814-38.452,119.629-76.904,179.443-115.357,115.357,38.452,230.713,76.904,346.069,115.357,123.885-43.25,247.769-86.499,371.654-129.749"/>
    <path class="cls-5" d="M1392.752,26.229l-26.052-21.435.714-.94,50.527,2.133c16.647-1.997,33.294-3.994,49.942-5.987-14.273,8.798-28.545,17.595-42.817,26.396l-38.221,33.116-1.092-.14,6.998-33.143Z"/>
  </g>
</svg>