<?xml version="1.0" standalone="no"?>
<!DOCTYPE svg PUBLIC "-//W3C//DTD SVG 20010904//EN"
 "http://www.w3.org/TR/2001/REC-SVG-20010904/DTD/svg10.dtd">
<svg version="1.0" xmlns="http://www.w3.org/2000/svg"
 width="858.000000pt" height="858.000000pt" viewBox="0 0 858.000000 858.000000"
 preserveAspectRatio="xMidYMid meet">
<metadata>
Created by potrace 1.14, written by Peter Selinger 2001-2017
</metadata>
<g transform="translate(0.000000,858.000000) scale(0.100000,-0.100000)"
fill="#000000" stroke="none">
<path d="M3578 8575 c-2 -1 -43 -5 -93 -9 -104 -8 -121 -10 -270 -37 -757
-139 -1333 -620 -1560 -1303 -24 -72 -46 -142 -49 -156 -2 -14 -13 -68 -24
-120 -11 -52 -20 -102 -20 -110 0 -8 -4 -46 -9 -85 -16 -136 -9 -487 13 -635
114 -789 539 -1585 1199 -2245 204 -205 212 -210 100 -61 -125 167 -236 336
-338 516 -26 47 -140 275 -161 323 -9 20 -23 52 -31 70 -75 171 -182 514 -210
677 -19 108 -26 150 -31 200 -4 30 -10 75 -14 100 -9 48 -6 489 3 530 3 14 8
48 12 75 7 58 7 57 39 195 65 275 202 557 375 770 85 104 250 259 357 336 104
74 242 159 248 153 2 -2 -18 -41 -43 -85 -79 -136 -146 -332 -165 -479 -4 -27
-10 -66 -13 -85 -10 -59 -6 -330 7 -420 30 -221 128 -551 207 -695 44 -80 216
-290 347 -425 158 -162 154 -160 102 -43 -102 229 -166 459 -193 693 -9 81 -9
326 0 400 62 480 318 856 722 1061 l87 44 102 -3 c55 -1 135 -4 176 -6 41 -3
102 -5 135 -6 l60 -1 -75 -22 c-439 -131 -732 -429 -839 -853 -30 -120 -35
-166 -35 -334 -1 -139 5 -227 19 -300 3 -14 8 -41 11 -60 9 -52 42 -176 66
-250 127 -395 409 -853 645 -1052 154 -129 479 -355 492 -342 3 2 -9 19 -26
37 -69 73 -244 319 -314 442 -224 393 -331 746 -333 1100 -1 128 2 170 19 290
18 123 118 372 183 455 15 19 35 46 43 60 45 70 204 210 314 276 162 98 381
167 600 190 77 8 310 8 383 -1 118 -14 144 -18 254 -40 158 -32 336 -86 488
-147 140 -57 390 -181 429 -214 14 -11 37 -27 51 -34 l25 -13 -25 29 c-206
234 -360 387 -560 558 -123 105 -337 268 -435 332 -33 21 -62 42 -65 45 -16
18 -327 198 -455 262 -502 252 -929 381 -1460 442 -58 7 -461 16 -467 10z"/>
<path d="M4850 4256 c0 -2 51 -42 113 -89 61 -47 121 -94 132 -104 11 -10 38
-33 60 -52 130 -109 329 -318 448 -471 296 -379 486 -825 524 -1230 13 -135 6
-411 -12 -462 -2 -7 -6 -26 -9 -43 -33 -202 -146 -465 -278 -646 -47 -64 -138
-171 -169 -196 l-25 -21 18 69 c39 156 44 354 14 524 -34 186 -142 446 -256
616 -68 102 -139 191 -184 232 -56 52 -301 215 -410 273 l-89 47 68 -84 c168
-205 294 -444 354 -668 13 -47 25 -95 27 -108 2 -13 7 -35 10 -50 13 -63 12
-310 -2 -391 -43 -243 -151 -450 -323 -622 -74 -74 -101 -88 -196 -106 -12 -2
-202 -52 -230 -61 -11 -3 5 11 35 32 220 150 368 345 430 565 31 110 35 149
34 310 -1 168 -21 271 -86 435 -126 322 -377 640 -688 871 -36 27 -73 56 -83
65 -44 40 -279 139 -460 193 -178 53 -181 53 -111 7 105 -71 245 -188 352
-293 505 -497 677 -1101 445 -1563 -261 -519 -949 -761 -1758 -618 -49 9 -117
24 -149 34 -33 11 -61 18 -63 16 -8 -9 248 -159 412 -242 465 -234 970 -378
1445 -412 183 -13 557 -7 645 11 11 2 47 7 80 11 32 3 62 8 65 10 3 2 26 6 50
10 25 3 53 8 62 11 16 5 40 10 86 20 12 2 74 20 136 39 411 125 729 325 988
623 57 65 159 223 207 318 43 88 97 222 106 264 2 8 8 35 15 60 7 25 14 56 17
70 2 14 8 43 13 65 30 137 30 388 -1 585 -114 735 -686 1494 -1486 1972 -123
73 -323 181 -323 174z"/>
</g>
</svg>
