<?xml version="1.0" standalone="no"?>
<!DOCTYPE svg PUBLIC "-//W3C//DTD SVG 20010904//EN"
 "http://www.w3.org/TR/2001/REC-SVG-20010904/DTD/svg10.dtd">
<svg version="1.0" xmlns="http://www.w3.org/2000/svg"
 width="1920.000000pt" height="1920.000000pt" viewBox="0 0 1920.000000 1920.000000"
 preserveAspectRatio="xMidYMid meet">
<metadata>
Created by potrace 1.14, written by Peter Selinger 2001-2017
</metadata>
<g transform="translate(0.000000,1920.000000) scale(0.100000,-0.100000)"
fill="#000000" stroke="none">
<path d="M16787 12244 c-2 -3 -39 -8 -142 -20 -67 -8 -108 -13 -160 -21 -60
-9 -383 -9 -547 0 -65 3 -118 3 -118 -1 0 -4 50 -47 110 -96 61 -49 109 -91
107 -92 -3 -3 -313 -113 -392 -139 -22 -7 -112 -38 -200 -69 -88 -31 -198 -70
-245 -86 -47 -16 -137 -47 -200 -70 -63 -22 -153 -54 -200 -70 -47 -16 -119
-41 -160 -55 -41 -15 -268 -94 -505 -177 -236 -82 -475 -166 -530 -185 -55
-20 -111 -39 -125 -44 -14 -4 -90 -30 -170 -58 -80 -29 -215 -76 -300 -106
-85 -29 -236 -81 -335 -116 l-180 -62 -105 34 c-58 20 -837 279 -1732 578
l-1628 543 -369 -239 c-204 -131 -378 -243 -388 -248 -10 -6 -49 -31 -88 -56
-38 -25 -230 -149 -425 -274 -195 -125 -392 -252 -437 -281 l-82 -54 -168 81
c-92 45 -240 116 -328 159 -397 193 -541 262 -1024 497 -107 51 -198 92 -203
91 -6 -2 -16 -18 -23 -35 l-13 -30 142 -69 c77 -37 245 -118 371 -180 127 -61
298 -144 380 -184 83 -40 227 -110 320 -155 94 -45 255 -124 358 -174 104 -50
194 -88 200 -85 7 4 328 210 714 458 387 248 714 458 727 466 14 8 98 62 187
119 l162 105 896 -298 c493 -164 903 -300 911 -303 8 -3 383 -128 833 -279
l818 -273 52 19 c141 51 211 75 442 155 138 48 279 97 315 110 36 13 119 42
185 65 66 23 163 57 215 75 52 18 194 68 315 110 121 42 270 94 330 115 61 21
209 73 330 115 262 92 344 121 615 215 113 40 255 89 315 110 61 21 187 65
281 98 l171 60 -29 -135 c-16 -75 -27 -140 -26 -145 3 -8 117 87 324 269 34
30 149 107 255 173 231 141 239 147 216 147 -9 0 -18 -2 -20 -3z"/>
<path d="M3100 12068 c-103 -11 -121 -15 -190 -32 -291 -75 -489 -223 -638
-476 -22 -38 -70 -152 -77 -185 -2 -11 -9 -38 -15 -60 -19 -76 -25 -140 -25
-270 0 -138 6 -200 31 -305 9 -36 17 -72 19 -80 12 -54 66 -193 114 -295 69
-143 138 -256 238 -386 77 -101 283 -322 261 -279 -7 13 -23 35 -35 49 -12 13
-30 39 -40 58 -9 18 -21 33 -25 33 -5 0 -8 4 -8 9 0 6 -14 30 -30 55 -80 117
-182 357 -224 521 -34 135 -41 200 -40 370 0 128 4 165 27 253 55 214 149 367
317 514 38 33 152 108 164 108 2 0 -13 -33 -33 -73 -33 -66 -49 -118 -67 -213
-35 -187 34 -497 143 -644 46 -62 184 -213 189 -207 3 2 -7 28 -20 58 -73 159
-104 360 -83 536 8 68 52 198 83 245 13 21 24 42 24 47 0 5 3 11 8 13 4 2 24
24 45 50 71 89 214 176 282 173 22 -2 74 -3 115 -4 l75 -2 -75 -27 c-69 -25
-139 -61 -166 -87 -6 -5 -21 -17 -33 -25 -37 -25 -110 -125 -141 -192 -127
-275 -34 -670 239 -1016 38 -48 200 -178 281 -225 28 -17 26 -11 -30 63 -117
159 -198 321 -241 485 -34 130 -34 329 0 430 74 214 211 336 445 395 66 17
103 19 215 16 75 -2 149 -7 165 -10 125 -29 165 -40 235 -66 90 -33 237 -104
265 -129 18 -15 18 -15 5 7 -23 38 -248 253 -341 325 -341 266 -717 429 -1093
473 -86 9 -239 11 -315 2z"/>
<path d="M5014 11271 c-2 -2 -4 -159 -4 -347 l0 -343 -77 -3 -77 -3 -1 -163 0
-162 78 0 77 0 1 -622 c0 -343 2 -636 4 -653 14 -106 34 -154 79 -181 28 -17
57 -19 285 -22 216 -3 261 -1 297 13 61 23 87 72 100 185 7 64 12 529 6 548
-3 9 -43 12 -152 12 l-149 0 0 -187 c-1 -199 -3 -218 -15 -230 -4 -4 -37 -8
-72 -9 -53 0 -67 3 -75 17 -5 11 -8 236 -7 571 l3 553 210 2 c116 1 217 2 226
2 14 1 16 21 15 164 l-1 162 -227 3 -228 2 0 345 0 345 -27 0 c-16 1 -81 2
-146 3 -65 1 -121 0 -123 -2z"/>
<path d="M8091 10700 c-4 -8 -6 -445 -6 -970 l1 -955 149 0 150 0 0 302 c0
167 3 303 6 303 3 0 84 -137 180 -305 l174 -304 148 -1 c81 0 147 2 147 5 0 3
-44 86 -98 183 -55 97 -114 204 -132 237 -18 33 -66 119 -106 190 -40 72 -78
142 -84 156 -11 25 -3 41 136 255 81 126 168 261 194 299 72 109 81 100 -102
100 l-160 0 -144 -230 c-80 -126 -148 -231 -152 -233 -4 -1 -7 218 -6 488 0
439 -1 490 -15 491 -9 0 -74 1 -144 2 -106 2 -130 -1 -136 -13z"/>
<path d="M9181 10710 c-6 -4 -8 -1901 -2 -1933 0 -4 67 -6 149 -5 l147 3 0
572 c0 423 3 575 12 584 17 17 283 15 294 -3 5 -7 9 -271 9 -585 l0 -573 150
0 150 0 0 633 c-1 708 -2 729 -69 774 -23 16 -60 19 -286 23 l-260 5 0 253 c0
138 -2 252 -5 253 -20 4 -283 3 -289 -1z"/>
<path d="M11361 10705 c-5 -8 -7 -1859 -2 -1922 1 -10 38 -13 149 -13 l149 0
0 970 0 970 -21 1 c-124 5 -269 2 -275 -6z"/>
<path d="M13646 10712 c-15 -3 -16 -17 -14 -130 l3 -127 150 -1 c83 -1 153 -2
156 -3 3 0 5 -373 4 -828 0 -456 1 -834 3 -840 3 -10 44 -13 158 -13 140 0
154 2 155 18 0 9 1 388 2 842 l2 825 140 1 c77 1 147 2 157 3 14 1 16 17 16
126 0 87 -3 125 -11 126 -35 3 -906 3 -921 1z"/>
<path d="M16319 10712 c-13 -2 -15 -122 -15 -973 l0 -970 456 3 c506 3 489 1
527 71 16 29 18 70 20 427 2 377 1 397 -18 435 -11 22 -31 49 -46 61 l-27 21
32 29 c23 21 35 42 41 78 14 75 7 694 -8 731 -18 45 -50 74 -90 82 -34 6 -841
11 -872 5z m644 -271 c14 -11 16 -49 14 -289 l-2 -277 -175 0 -175 0 -3 290
-2 291 164 -1 c119 -1 168 -4 179 -14z m32 -1102 c0 -218 -3 -280 -14 -293
-11 -14 -38 -16 -187 -16 l-174 0 0 293 0 293 188 -1 187 0 0 -276z"/>
<path d="M15427 10528 c-21 -101 -40 -194 -43 -207 -3 -13 -25 -121 -50 -240
-25 -119 -54 -260 -64 -313 -11 -54 -24 -117 -30 -140 -5 -24 -32 -153 -60
-288 -28 -135 -53 -256 -56 -270 -3 -14 -7 -36 -10 -50 -2 -14 -12 -56 -20
-95 -9 -38 -18 -83 -20 -100 -3 -16 -7 -36 -9 -42 -3 -10 29 -13 140 -13 157
0 148 -4 160 62 27 133 37 187 41 208 2 14 9 49 15 78 l10 52 190 0 c143 0
191 -3 194 -12 2 -7 7 -24 9 -38 12 -61 18 -89 31 -145 7 -33 16 -76 19 -95 4
-19 10 -51 14 -70 l8 -35 134 -3 c74 -1 139 -1 146 2 9 3 9 18 -2 63 -7 32
-15 69 -18 83 -7 38 -106 502 -177 830 -17 80 -32 154 -34 165 -2 11 -6 31 -9
45 -7 26 -12 56 -21 105 -3 17 -8 37 -10 45 -4 13 -59 268 -70 325 -2 11 -17
77 -32 148 l-27 127 -156 0 -155 0 -38 -182z m198 -416 c1 -4 4 -23 8 -42 4
-19 9 -46 12 -60 3 -14 9 -48 15 -76 6 -28 13 -63 16 -79 3 -16 12 -61 20
-100 9 -38 17 -82 19 -98 2 -15 6 -31 9 -35 2 -4 7 -26 10 -48 7 -44 13 -75
22 -116 3 -16 2 -28 -3 -29 -35 -4 -257 -3 -263 1 -5 3 -3 34 5 70 13 62 16
81 30 160 4 19 16 78 26 130 11 52 22 111 25 130 3 19 9 51 14 70 10 38 22
107 23 128 0 12 12 7 12 -6z"/>
<path d="M11850 10268 c-1 -18 -1 -1438 -1 -1470 l1 -28 140 0 c138 0 140 0
141 23 0 12 1 270 2 574 2 412 5 555 14 564 18 18 172 16 184 -2 5 -8 9 -268
9 -587 l0 -573 132 3 133 3 0 572 c0 431 3 575 12 584 17 17 173 15 184 -2 5
-8 9 -272 9 -587 l0 -573 143 3 142 3 0 610 c1 336 -3 635 -8 665 -10 71 -34
111 -77 132 -32 16 -75 18 -458 18 -397 0 -423 1 -421 18 6 65 13 62 -141 62
-105 0 -140 -3 -140 -12z"/>
<path d="M7115 10193 c-38 -7 -78 -51 -91 -100 -10 -37 -12 -182 -11 -628 2
-552 3 -582 21 -618 13 -24 34 -44 61 -57 39 -19 59 -20 381 -17 306 2 342 4
372 20 36 19 59 63 68 126 8 51 11 349 5 359 -3 4 -71 7 -151 7 l-145 0 -1
-110 c0 -61 -3 -119 -7 -128 -6 -15 -24 -17 -145 -17 -94 0 -142 4 -150 12
-14 14 -17 864 -3 887 11 17 275 21 293 3 7 -7 12 -51 13 -109 2 -54 3 -101 4
-104 1 -7 257 -10 281 -3 14 3 16 26 14 147 -1 172 -9 234 -35 276 -36 59 -53
61 -421 60 -183 -1 -342 -4 -353 -6z"/>
<path d="M10330 10182 c-41 -22 -67 -69 -76 -137 -13 -94 -8 -1097 6 -1153 14
-60 48 -98 101 -112 23 -6 167 -10 355 -10 333 1 367 5 401 48 43 54 46 90 47
642 1 514 -3 608 -31 668 -34 70 -43 72 -428 72 -311 0 -343 -2 -375 -18z
m523 -251 c11 -11 13 -873 2 -890 -4 -7 -58 -11 -150 -11 -121 0 -144 2 -149
16 -9 23 -7 867 2 880 4 7 16 13 26 15 39 8 260 -1 269 -10z"/>
<path d="M6049 10130 c-67 -19 -97 -59 -107 -145 -8 -70 -7 -988 1 -1058 8
-69 27 -108 64 -133 26 -18 53 -19 376 -22 328 -2 350 -1 386 17 43 22 66 62
76 131 12 80 9 1029 -4 1090 -26 124 -37 127 -444 127 -177 0 -334 -3 -348 -7z
m496 -262 c3 -13 4 -207 3 -433 l-3 -410 -144 -3 c-83 -1 -149 2 -154 7 -11
11 -13 832 -3 850 5 7 57 11 151 11 142 0 145 0 150 -22z"/>
<path d="M3820 9916 c0 -2 25 -23 56 -46 153 -115 333 -330 421 -503 38 -73
87 -200 97 -253 3 -10 9 -39 15 -64 5 -25 9 -108 7 -185 -3 -125 -6 -150 -34
-231 -35 -106 -97 -214 -164 -287 l-47 -52 10 35 c15 52 19 197 8 259 -31 162
-142 363 -248 447 -63 50 -190 128 -197 121 -2 -2 14 -26 36 -53 50 -61 135
-229 156 -309 21 -83 25 -236 8 -305 -23 -88 -79 -191 -136 -251 -45 -47 -62
-58 -108 -69 -30 -7 -73 -19 -94 -27 -22 -7 -38 -12 -35 -10 2 3 31 26 64 53
68 55 74 61 119 129 148 224 72 550 -188 808 -101 100 -188 163 -275 196 -79
30 -181 62 -181 57 0 -2 30 -26 68 -54 145 -108 279 -275 337 -419 147 -367
-40 -679 -460 -768 -107 -23 -430 -6 -490 25 -11 6 -6 -1 10 -15 77 -66 449
-228 574 -250 19 -3 37 -8 40 -10 9 -5 187 -34 256 -40 400 -40 785 80 1013
315 283 292 308 725 64 1130 -141 234 -351 431 -630 593 -62 36 -72 41 -72 33z"/>
</g>
</svg>
